<svg xmlns="http://www.w3.org/2000/svg" class="main-logo-clicksafey-svg" alt="Clicksafety logo" title="Clicksafety" width="225" height="75">
    <style type="text/css">
        .main-logo-clicksafey-svg0{fill:#939598;} .main-logo-clicksafey-svg1{fill:#F15623;} .main-logo-clicksafey-svg2{fill:#009DE1;}
    </style>
    <path class="main-logo-clicksafey-svg0" d="m20.110529 46.584267l-1.9 0 0-0.7 4.5 0 0 0.7 -1.8 0 0 9 -0.9 0 0-9 0.1 0z"/>
    <path class="main-logo-clicksafey-svg0" d="m23.910529 45.884267l2.2 0c1.8 0 2.4 0.9 2.4 2.5 0 1.1-0.3 2.1-1.3 2.3l1.5 5 -0.9 0 -1.4-4.8 -1.5 0 0 4.8 -0.9 0 0-9.8 -0.1 0zm2.2 4.3c1.2 0 1.6-0.6 1.6-1.8s-0.3-1.8-1.5-1.8l-1.3 0 0 3.6 1.2 0z"/>
    <path class="main-logo-clicksafey-svg0" d="m31.710529 45.884267l1 0 2.1 9.7 -0.9 0 -0.5-2.6 -2.3 0 -0.5 2.6 -0.9 0 2-9.7zm1.6 6.5l-1-5.2 -1 5.2 2 0z"/>
    <path class="main-logo-clicksafey-svg0" d="m36.110529 45.884267l0.9 0 0 9.7 -0.9 0 0-9.7z"/>
    <path class="main-logo-clicksafey-svg0" d="m38.810529 45.884267l0.7 0 3.1 7.5 0-7.5 0.8 0 0 9.7 -0.6 0 -3.1-7.6 0 7.6 -0.8 0 0-9.7 -0.1 0z"/>
    <path class="main-logo-clicksafey-svg0" d="m45.210529 45.884267l0.9 0 0 9.7 -0.9 0 0-9.7z"/>
    <path class="main-logo-clicksafey-svg0" d="m48.010529 45.884267l0.7 0 3.1 7.5 0-7.5 0.8 0 0 9.7 -0.6 0 -3.1-7.6 0 7.6 -0.8 0 0-9.7 -0.1 0z"/>
    <path class="main-logo-clicksafey-svg0" d="m54.110529 52.684267l0-3.8c0-1.9 0.5-3.1 2.5-3.1 1.7 0 2.4 1 2.4 2.8l0 0.3 -0.9 0 0-0.3c0-1.4-0.3-2.1-1.5-2.1 -1.3 0-1.5 0.9-1.5 2.2l0 4c0 1.4 0.3 2.2 1.6 2.2 1.2 0 1.5-0.8 1.5-2.3l0-1.1 -1.4 0 0-0.7 2.3 0 0 4.7 -0.6 0 -0.1-1.1c-0.3 0.7-0.8 1.2-1.8 1.2 -1.9 0.2-2.5-1.1-2.5-2.9z"/>
    <path class="main-logo-clicksafey-svg0" d="m60.610529 54.284267l0.9 0 0 1.3 -0.9 0 0-1.3z"/>
    <path class="main-logo-clicksafey-svg0" d="m67.910529 52.684267l0-3.9c0-1.8 0.5-3 2.5-3 1.7 0 2.3 1.1 2.3 2.8l0 0.6 -0.9 0 0-0.6c0-1.3-0.2-2.1-1.4-2.1 -1.3 0-1.5 0.9-1.5 2.2l0 4.1c0 1.4 0.3 2.2 1.5 2.2 1.2 0 1.4-0.8 1.4-2.1l0-0.6 0.9 0 0 0.6c0 1.7-0.5 2.9-2.3 2.9 -2 0-2.5-1.4-2.5-3.1z"/>
    <path class="main-logo-clicksafey-svg0" d="m74.010529 52.784267l0-4c0-1.8 0.6-2.9 2.5-2.9 1.9 0 2.5 1.2 2.5 2.9l0 4c0 1.8-0.6 3-2.5 3 -1.9 0-2.5-1.3-2.5-3zm4.1 0.2l0-4.4c0-1.2-0.3-2-1.6-2 -1.3 0-1.6 0.8-1.6 2l0 4.4c0 1.2 0.3 2.1 1.6 2.1 1.3-0.1 1.6-0.9 1.6-2.1z"/>
    <path class="main-logo-clicksafey-svg0" d="m80.810529 45.884267l0.9 0 1.9 8.4 2-8.4 0.9 0 0.2 9.7 -0.8 0 -0.2-7.7 -1.9 7.7 -0.6 0 -1.8-7.7 -0.2 7.7 -0.8 0 0.4-9.7z"/>
    <path class="main-logo-clicksafey-svg0" d="m88.510529 45.884267l2.3 0c1.7 0 2.3 1 2.3 2.6 0 1.4-0.6 2.5-2.3 2.5l-1.4 0 0 4.6 -0.9 0 0-9.7zm2.1 4.5c1.2 0 1.7-0.5 1.7-1.9 0-1.5-0.4-1.9-1.6-1.9l-1.2 0 0 3.8 1.1 0z"/>
    <path class="main-logo-clicksafey-svg0" d="m94.410529 45.884267l0.9 0 0 9 2.8 0 0 0.7 -3.7 0 0-9.7z"/>
    <path class="main-logo-clicksafey-svg0" d="m99.110529 45.884267l0.9 0 0 9.7 -0.9 0 0-9.7z"/>
    <path class="main-logo-clicksafey-svg0" d="m103.410529 45.884267l1 0 2.1 9.7 -0.9 0 -0.5-2.6 -2.3 0 -0.5 2.6 -0.9 0 2-9.7zm1.5 6.5l-1-5.2 -1 5.2 2 0z"/>
    <path class="main-logo-clicksafey-svg0" d="m107.710529 45.884267l0.7 0 3.1 7.5 0-7.5 0.8 0 0 9.7 -0.6 0 -3.1-7.6 0 7.6 -0.8 0 0-9.7 -0.1 0z"/>
    <path class="main-logo-clicksafey-svg0" d="m113.910529 52.684267l0-3.9c0-1.8 0.5-3 2.5-3 1.7 0 2.3 1.1 2.3 2.8l0 0.6 -0.9 0 0-0.6c0-1.3-0.2-2.1-1.4-2.1 -1.3 0-1.5 0.9-1.5 2.2l0 4.1c0 1.4 0.3 2.2 1.5 2.2 1.2 0 1.4-0.8 1.4-2.1l0-0.6 0.9 0 0 0.6c0 1.7-0.5 2.9-2.3 2.9 -2 0-2.5-1.4-2.5-3.1z"/>
    <path class="main-logo-clicksafey-svg0" d="m120.210529 45.884267l3.5 0 0 0.7 -2.6 0 0 3.6 2.1 0 0 0.7 -2.1 0 0 4 2.6 0 0 0.7 -3.5 0 0-9.7z"/>
    <path class="main-logo-clicksafey-svg0" d="m125.010529 54.284267l0.9 0 0 1.3 -0.9 0 0-1.3z"/>
    <path class="main-logo-clicksafey-svg0" d="m134.110529 52.384267l-2.2-6.5 0.9 0 1.8 5.4 1.7-5.4 0.9 0 -2.1 6.5 0 3.2 -0.9 0 0-3.2 -0.1 0z"/>
    <path class="main-logo-clicksafey-svg0" d="m138.110529 52.784267l0-4c0-1.8 0.6-2.9 2.5-2.9 1.9 0 2.5 1.2 2.5 2.9l0 4c0 1.8-0.6 3-2.5 3 -2 0-2.5-1.3-2.5-3zm4 0.2l0-4.4c0-1.2-0.3-2-1.6-2 -1.3 0-1.6 0.8-1.6 2l0 4.4c0 1.2 0.3 2.1 1.6 2.1 1.3-0.1 1.6-0.9 1.6-2.1z"/>
    <path class="main-logo-clicksafey-svg0" d="m144.610529 52.984267l0-7.1 0.9 0 0 7.1c0 1.1 0.3 2 1.6 2 1.2 0 1.6-0.9 1.6-2l0-7.1 0.9 0 0 7.1c0 1.6-0.6 2.8-2.5 2.8 -2 0-2.5-1.2-2.5-2.8z"/>
    <path class="main-logo-clicksafey-svg0" d="m151.310529 45.884267l2.2 0c1.8 0 2.4 0.9 2.4 2.5 0 1.1-0.3 2.1-1.3 2.3l1.5 5 -0.9 0 -1.4-4.8 -1.6 0 0 4.8 -0.9 0 0-9.8zm2.1 4.3c1.2 0 1.6-0.6 1.6-1.8s-0.3-1.8-1.5-1.8l-1.3 0 0 3.6 1.2 0z"/>
    <path class="main-logo-clicksafey-svg0" d="m160.110529 45.884267l3.5 0 0 0.7 -2.6 0 0 3.7 2.1 0 0 0.7 -2.1 0 0 4.7 -0.9 0 0-9.8z"/>
    <path class="main-logo-clicksafey-svg0" d="m164.710529 52.984267l0-7.1 0.9 0 0 7.1c0 1.1 0.3 2 1.6 2 1.2 0 1.6-0.9 1.6-2l0-7.1 0.9 0 0 7.1c0 1.6-0.6 2.8-2.5 2.8 -2 0-2.5-1.2-2.5-2.8z"/>
    <path class="main-logo-clicksafey-svg0" d="m172.610529 46.584267l-1.8 0 0-0.7 4.5 0 0 0.7 -1.8 0 0 9 -0.9 0 0-9z"/>
    <path class="main-logo-clicksafey-svg0" d="m176.410529 52.984267l0-7.1 0.9 0 0 7.1c0 1.1 0.3 2 1.6 2 1.2 0 1.6-0.9 1.6-2l0-7.1 0.9 0 0 7.1c0 1.6-0.6 2.8-2.5 2.8 -2 0-2.5-1.2-2.5-2.8z"/>
    <path class="main-logo-clicksafey-svg0" d="m183.110529 45.884267l2.2 0c1.8 0 2.4 0.9 2.4 2.5 0 1.1-0.3 2.1-1.3 2.3l1.5 5 -0.9 0 -1.4-4.8 -1.5 0 0 4.8 -0.9 0 0-9.8 -0.1 0zm2.1 4.3c1.2 0 1.6-0.6 1.6-1.8s-0.3-1.8-1.5-1.8l-1.3 0 0 3.6 1.2 0z"/>
    <path class="main-logo-clicksafey-svg0" d="m189.310529 45.884267l3.5 0 0 0.7 -2.6 0 0 3.6 2.1 0 0 0.7 -2.1 0 0 4 2.6 0 0 0.7 -3.5 0 0-9.7z"/>
    <path class="main-logo-clicksafey-svg0" d="m194.110529 54.284267l0.9 0 0 1.3 -0.9 0 0-1.3z"/>
    <path d="m0.810529 26.084267l2.6-12.1c1.5-6.9 4.8-11.2 12.4-11.2 7.4 0 8.8 4 7.6 9.7l-0.6 2.9 -7.2 0 0.7-3.3c0.4-1.9 0.8-4-1.5-4 -2.4 0-3 2.1-3.4 4.1l-3.3 15.7c-0.5 2.3-0.5 4.1 1.7 4.1 2.3 0 2.8-2.1 3.3-4.1l0.7-3.5 7.2 0 -0.6 2.9c-1.2 5.7-4.3 10-11.7 10 -7.9 0-9.3-4.4-7.9-11.2z"/>
    <path d="m28.210529 3.284267l7.4 0 -6 28.5 7.7 0 -1.1 5 -15.1 0 7.1-33.5z"/>
    <path d="m52.710529 26.084267l2.6-12.1c1.5-6.9 4.8-11.2 12.4-11.2 7.4 0 8.8 4 7.6 9.7l-0.6 2.9 -7.2 0 0.7-3.3c0.4-1.9 0.8-4-1.5-4s-3 2.1-3.4 4.1l-3.3 15.7c-0.5 2.3-0.5 4.1 1.7 4.1 2.3 0 2.8-2.1 3.3-4.1l0.7-3.5 7.2 0 -0.6 2.9c-1.2 5.7-4.3 10-11.7 10 -7.8 0-9.3-4.4-7.9-11.2z"/>
    <path d="m80.810529 3.284267l7.4 0 -2.9 13.7 8.5-13.7 7.2 0 -9.4 15.1 2.6 18.3 -7.5 0 -1.7-14.8 -1.1 1.3 -2.9 13.5 -7.4 0 7.2-33.4z"/>
    <path class="main-logo-clicksafey-svg1" d="m96.610529 26.584267l6.5-0.9c-0.8 4.3-0.2 5.9 1.7 5.9 1.5 0 2.1-1.3 2.4-2.4 0.6-2.8-0.5-4.4-2.3-6.4l-2.4-2.5c-2.1-2.1-3.5-4.7-2.6-8.7 1.2-5.7 5.5-8.8 11.2-8.8 7.1 0 7 5.6 6.3 9.5l-6.5 0.8c0.5-3 0.7-4.9-1.2-4.9 -1.4 0-2.3 1.4-2.5 2.6 -0.5 2.5 0.5 3.8 2.1 5.5l2.2 2.4c2.4 2.5 4.1 5.4 3.1 10 -1 4.8-5.2 8.4-10.5 8.4 -6.5 0.1-8.8-3.1-7.5-10.5z"/>
    <path class="main-logo-clicksafey-svg1" d="m127.010529 3.184267l8.4 0 -0.9 33.5 -6.8 0 0.4-7.1 -4.9 0 -2.7 7.1 -7 0 13.5-33.5zm1.3 22l1-13.1 -4.6 13.1 3.6 0z"/>
    <path class="main-logo-clicksafey-svg1" d="m143.810529 3.184267l14.4 0 -1.1 5 -7.1 0 -1.8 8.4 6.2 0 -1.1 5.2 -6.1 0 -3.2 14.9 -7.4 0 7.2-33.5z"/>
    <path class="main-logo-clicksafey-svg1" d="m160.210529 3.184267l15 0 -1.1 5 -7.6 0 -1.8 8.3 5.8 0 -1.1 5.1 -5.8 0 -2.1 10 7.7 0 -1.1 5 -15.1 0 7.2-33.4z"/>
    <path class="main-logo-clicksafey-svg1" d="m181.310529 8.684267l-5 0 1.2-5.5 17.5 0 -1.2 5.5 -5 0 -5.9 28 -7.4 0 5.8-28z"/>
    <path class="main-logo-clicksafey-svg1" d="m198.310529 22.984267l-2.2-19.8 7 0 0.9 10.6 5.1-10.6 6.7 0 -10.4 19.8 -2.9 13.7 -7.1 0 2.9-13.7z"/>
    <polygon class="main-logo-clicksafey-svg2" points="55.810535341501236 7.684267044067383 40.310535341501236 14.384279251098633 43.01053228974342 7.684267044067383 40.71052923798561 0.38427940011024475 "/>
    <polygon points="43.810535341501236 16.084260940551758 39.4105261862278 36.684268951416016 46.810535341501236 36.684268951416016 51.9105261862278 12.584260940551758 "/>
    <path class="main-logo-clicksafey-svg0" d="m218.410529 3.784267l-0.8 0 0-0.4 2 0 0 0.4 -0.7 0 0 3.3 -0.5 0 0-3.3zm1.6-0.4l0.5 0 0.9 2.9 1-2.9 0.5 0 0 3.8 -0.4 0 0-2.7 -0.9 2.7 -0.2 0 -0.9-2.7 0 2.7 -0.4 0 0-3.8 -0.1 0z"/>
</svg>
